<?xml version="1.0" encoding="iso-8859-1"?>
<!-- Generator: Adobe Illustrator 19.0.0, SVG Export Plug-In . SVG Version: 6.00 Build 0)  -->
<svg version="1.1" id="Capa_1" xmlns="http://www.w3.org/2000/svg" xmlns:xlink="http://www.w3.org/1999/xlink" x="0px" y="0px"
	 viewBox="0 0 512 512" style="enable-background:new 0 0 512 512;" xml:space="preserve">
<g>
	
		<rect x="56.582" y="61.142" transform="matrix(-0.6525 -0.7578 0.7578 -0.6525 131.0779 198.067)" style="fill:#D38405;" width="108.743" height="15.674"/>
	
		<rect x="151.788" y="61.153" transform="matrix(-0.6525 -0.7578 0.7578 -0.6525 288.3979 270.2326)" style="fill:#D38405;" width="108.743" height="15.674"/>
	
		<rect x="246.995" y="61.154" transform="matrix(-0.6525 -0.7578 0.7578 -0.6525 445.7259 342.3809)" style="fill:#D38405;" width="108.743" height="15.674"/>
	
		<rect x="342.212" y="61.155" transform="matrix(-0.6525 -0.7578 0.7578 -0.6525 603.0711 414.5371)" style="fill:#D38405;" width="108.743" height="15.674"/>
	
		<rect x="88.419" y="302.8" transform="matrix(-0.6525 -0.7578 0.7578 -0.6525 -111.6005 663.167)" style="fill:#D38405;" width="15.674" height="108.743"/>
	
		<rect x="88.397" y="397.999" transform="matrix(-0.6525 -0.7578 0.7578 -0.6525 -183.777 820.4653)" style="fill:#D38405;" width="15.674" height="108.743"/>
</g>
<path style="fill:#F7C400;" d="M424.294,392.057v30.83c23.392,6.355,39.213,31.1,30.965,57.738
	c-4.192,13.386-15.009,24.339-28.531,28.531c-30.83,9.6-59.361-13.386-59.361-42.864h5.274c10.411,0,19.606,5.274,27.043,12.71
	c3.245,3.245,7.843,5.274,12.71,5.274c10.006,0,18.12-8.113,18.12-17.984c0-10.006-8.113-18.12-18.12-18.12h-11.763v-56.115"/>
<rect x="401.732" y="165.533" style="fill:#7C8182;" width="23.656" height="186.18"/>
<rect x="413.226" y="203.149" style="fill:#919A9B;" width="12.163" height="148.564"/>
<path style="fill:#425965;" d="M389.782,119.925h47.56v54.84c0,5.807-4.707,10.514-10.514,10.514h-26.532
	c-5.806,0-10.514-4.707-10.514-10.514L389.782,119.925L389.782,119.925z"/>
<path style="fill:#2F4149;" d="M408.594,174.765v-54.84h-18.811v54.84c0,5.807,4.707,10.514,10.514,10.514h18.811
	C413.301,185.279,408.594,180.572,408.594,174.765z"/>
<g>
	<path style="fill:#F49C00;" d="M512,33.725V0.258H0v33.467h46.111v70.527H0v33.467h512v-33.467h-50.563V33.725H512z
		 M80.592,104.253V33.725h60.732v70.527H80.592z M175.803,104.253V33.725h60.732v70.527H175.803z M271.014,104.253V33.725h60.732
		v70.527H271.014z M426.958,104.253h-60.732V33.725h60.732V104.253z"/>
	<path style="fill:#F49C00;" d="M61.001,326.804h70.527v60.732H61.001V326.804z M61.001,422.015h70.527v60.732H61.001V422.015z
		 M61.004,104.253H27.536v407.489h33.468l0,0h70.52l0,0h33.468V326.804"/>
</g>
<rect x="27.536" y="137.718" style="fill:#D38405;" width="73.425" height="73.425"/>
<path style="fill:#F7C400;" d="M232.418,137.778v140.397c0,26.944-21.804,48.571-48.749,48.571H61.001V137.778H232.418z"/>
<rect x="61.001" y="137.78" style="fill:#D6A403;" width="171.416" height="53.18"/>
<rect x="131.908" y="179.085" style="fill:#A0D9F2;" width="70.907" height="70.907"/>
<path style="fill:#D6A403;" d="M202.815,257.825h-70.907c-4.328,0-7.837-3.509-7.837-7.837v-70.907c0-4.328,3.509-7.837,7.837-7.837
	h70.907c4.328,0,7.837,3.509,7.837,7.837v70.907C210.651,254.317,207.143,257.825,202.815,257.825z M139.745,242.152h55.233v-55.233
	h-55.233V242.152z"/>
<path style="fill:#425965;" d="M424.294,392.057h-22.56c-11.727,0-21.232-9.506-21.232-21.232v-14.756
	c0-11.727,9.506-21.232,21.232-21.232h22.56c11.727,0,21.232,9.506,21.232,21.232v14.756
	C445.527,382.551,436.02,392.057,424.294,392.057z"/>
<path style="fill:#2F4149;" d="M407.789,370.824v-14.756c0-10.927,8.256-19.917,18.869-21.093c-0.777-0.087-1.564-0.139-2.364-0.139
	h-22.56c-11.727,0-21.232,9.507-21.232,21.232v14.756c0,11.727,9.506,21.233,21.232,21.233h22.56c0.8,0,1.587-0.053,2.364-0.139
	C416.045,390.741,407.789,381.75,407.789,370.824z"/>
<g>
</g>
<g>
</g>
<g>
</g>
<g>
</g>
<g>
</g>
<g>
</g>
<g>
</g>
<g>
</g>
<g>
</g>
<g>
</g>
<g>
</g>
<g>
</g>
<g>
</g>
<g>
</g>
<g>
</g>
</svg>
